# xmcd
#
# Track frame offsets:
#	151
#	10136
#	23317
#	33377
#	41396
#	46957
#	55802
#	63063
#	71672
#	78743
#	89716
#	99044
#	107194
#	115898
#	129855
#	139475
#	152005
#	159286
#	164741
#	174505
#	184046
#	191601
#	204108
#	211338
#	217951
#
# Disc length: 3020 seconds
#
# Revision: 1
# Processed by: cddbd v1.5.2PL0 Copyright (c) Steve Scherf et al.
# Submitted via: EZCDAudioConverter 2.1.3.1
#
DISCID=490bca19
DTITLE=Various Artist - Bluegrass for Everyone
DYEAR=2006
DGENRE=Bluegrass
TTITLE0=Don Reno and Bill Harrel - I'm a Man of Constant Sorrow
TTITLE1=Hylo Brown and The Timberliners - Little John Henry
TTITLE2=Earl Taylor and Jim McCall - Foggy Mountain Top
TTITLE3=Red Smiley - Little Maggie
TTITLE4=Tater Tate and Red Smiley - Katy Hill
TTITLE5=Jim Greer - Jimmy Brown the Newsboy
TTITLE6=Frosty Mountain Boys ft. Raymond Fairchild  - Slew Foot
TTITLE7=Mac Wiseman - The Georgia Mail
TTITLE8=Don Reno and Bill Harrel - Red Rockin' Chair
TTITLE9=Raymond Fairchild  - Whoa Mule
TTITLE10=Earl Taylor and Jim McCall - Wreck of the Old '97
TTITLE11=Red Smiley - Livin' the Right Lift Now
TTITLE12=Frosty Mountain Boys ft. Raymond Fairchild  - Cripple Creek
TTITLE13=Hylo Brown - Sunny Tennessee
TTITLE14=Don Reno and Red Smiley - Kansas City Railroad Blues
TTITLE15=Earl Taylor and Jim McCall - Ain't Nobody Gonna Miss Me
TTITLE16=Red White and The Dixie Blue Grass Band - Fly Around My Pretty Little M
TTITLE16=iss
TTITLE17=Mac Wiseman - Sourwood Mountain
TTITLE18=Log Cabin Boys - Cotton Eyed Joe
TTITLE19=Tater Tate and Red Smiley - Sugar in the Gourd
TTITLE20=Red Smiley - It's Raining Here This Morning
TTITLE21=Hylo Brown - Crazy Fool
TTITLE22=Frosty Mountain Boys ft. Raymond Fairchild  - ROlling in My Sweet Bab
TTITLE22=y's Arms
TTITLE23=Jim Greer - The Tie That Binds
TTITLE24=Earl Taylor and Jim McCall - Old Joe Clark
EXTD=
EXTT0=
EXTT1=
EXTT2=
EXTT3=
EXTT4=
EXTT5=
EXTT6=
EXTT7=
EXTT8=
EXTT9=
EXTT10=
EXTT11=
EXTT12=
EXTT13=
EXTT14=
EXTT15=
EXTT16=
EXTT17=
EXTT18=
EXTT19=
EXTT20=
EXTT21=
EXTT22=
EXTT23=
EXTT24=
PLAYORDER=
